<?xml version="1.0" encoding="UTF-8" standalone="no"?>
<!DOCTYPE svg PUBLIC "-//W3C//DTD SVG 1.1//EN" "http://www.w3.org/Graphics/SVG/1.1/DTD/svg11.dtd">
<!-- Generated by graphviz version 2.40.1 (20161225.0304)
 -->
<!-- Title: flowchart Pages: 1 -->
<svg xmlns="http://www.w3.org/2000/svg" xmlns:xlink="http://www.w3.org/1999/xlink" width="918pt" height="454pt" viewBox="0.00 0.00 917.66 454.40">
  <g id="graph0" class="graph" transform="scale(1 1) rotate(0) translate(4 450.4)">
    <title>flowchart</title>
    <polygon fill="#ffffff" stroke="transparent" points="-4,4 -4,-450.4 913.6555,-450.4 913.6555,4 -4,4"/>
    <!-- tab1a -->
    <g id="node1" class="node">
      <title>tab1a</title>
      <polygon fill="none" stroke="#000000" points="269.0539,-446.2019 125.0539,-446.2019 125.0539,-404.9981 269.0539,-404.9981 269.0539,-446.2019"/>
      <text text-anchor="middle" x="197.0539" y="-429.8" font-family="Helvetica,sans-Serif" font-size="14.00" fill="#000000">Study base</text>
      <text text-anchor="middle" x="197.0539" y="-413" font-family="Helvetica,sans-Serif" font-size="14.00" fill="#000000">n = 502485</text>
    </g>
    <!-- tab1b -->
    <g id="node2" class="node">
      <title>tab1b</title>
      <polygon fill="none" stroke="#000000" points="664.8014,-446.2019 287.3064,-446.2019 287.3064,-404.9981 664.8014,-404.9981 664.8014,-446.2019"/>
      <text text-anchor="middle" x="476.0539" y="-429.8" font-family="Helvetica,sans-Serif" font-size="14.00" fill="#000000">Lack quality-controlled genotypes for risk score generation</text>
      <text text-anchor="middle" x="476.0539" y="-413" font-family="Helvetica,sans-Serif" font-size="14.00" fill="#000000">n = 15209</text>
    </g>
    <!-- tab1a&#45;&gt;tab1b -->
    <g id="edge6" class="edge">
      <title>tab1a-&gt;tab1b</title>
      <path fill="none" stroke="#000000" d="M269.256,-425.6C271.7552,-425.6 274.2543,-425.6 276.7535,-425.6"/>
      <polygon fill="#000000" stroke="#000000" points="277.0278,-429.1001 287.0277,-425.6 277.0277,-422.1001 277.0278,-429.1001"/>
    </g>
    <!-- tab2a -->
    <g id="node3" class="node">
      <title>tab2a</title>
      <polygon fill="none" stroke="#000000" points="340.2916,-360.2019 53.8162,-360.2019 53.8162,-318.9981 340.2916,-318.9981 340.2916,-360.2019"/>
      <text text-anchor="middle" x="197.0539" y="-343.8" font-family="Helvetica,sans-Serif" font-size="14.00" fill="#000000">Polygenic score and phenotypic information</text>
      <text text-anchor="middle" x="197.0539" y="-327" font-family="Helvetica,sans-Serif" font-size="14.00" fill="#000000">n = 487276</text>
    </g>
    <!-- tab1a&#45;&gt;tab2a -->
    <g id="edge1" class="edge">
      <title>tab1a-&gt;tab2a</title>
      <path fill="none" stroke="#000000" d="M197.0539,-404.7818C197.0539,-394.4295 197.0539,-381.7152 197.0539,-370.2729"/>
      <polygon fill="#000000" stroke="#000000" points="200.554,-370.2265 197.0539,-360.2265 193.554,-370.2265 200.554,-370.2265"/>
    </g>
    <!-- tab2b -->
    <g id="node4" class="node">
      <title>tab2b</title>
      <polygon fill="none" stroke="#000000" points="909.7571,-369.0014 358.3507,-369.0014 358.3507,-310.1986 909.7571,-310.1986 909.7571,-369.0014"/>
      <text text-anchor="middle" x="634.0539" y="-352.2" font-family="Helvetica,sans-Serif" font-size="14.00" fill="#000000">Participants with</text>
      <text text-anchor="middle" x="634.0539" y="-335.4" font-family="Helvetica,sans-Serif" font-size="14.00" fill="#000000">missing baseline covariate information (smoking, anti-hypertensive use, race, and sex)</text>
      <text text-anchor="middle" x="634.0539" y="-318.6" font-family="Helvetica,sans-Serif" font-size="14.00" fill="#000000">n = 34635</text>
    </g>
    <!-- tab2a&#45;&gt;tab2b -->
    <g id="edge7" class="edge">
      <title>tab2a-&gt;tab2b</title>
      <path fill="none" stroke="#000000" d="M340.4445,-339.6C342.9444,-339.6 345.4443,-339.6 347.9443,-339.6"/>
      <polygon fill="#000000" stroke="#000000" points="348.2217,-343.1001 358.2217,-339.6 348.2216,-336.1001 348.2217,-343.1001"/>
    </g>
    <!-- tab3a -->
    <g id="node5" class="node">
      <title>tab3a</title>
      <polygon fill="none" stroke="#000000" points="283.6843,-274.2019 110.4235,-274.2019 110.4235,-232.9981 283.6843,-232.9981 283.6843,-274.2019"/>
      <text text-anchor="middle" x="197.0539" y="-257.8" font-family="Helvetica,sans-Serif" font-size="14.00" fill="#000000">With baseline information</text>
      <text text-anchor="middle" x="197.0539" y="-241" font-family="Helvetica,sans-Serif" font-size="14.00" fill="#000000">n = 452641</text>
    </g>
    <!-- tab2a&#45;&gt;tab3a -->
    <g id="edge2" class="edge">
      <title>tab2a-&gt;tab3a</title>
      <path fill="none" stroke="#000000" d="M197.0539,-318.7818C197.0539,-308.4295 197.0539,-295.7152 197.0539,-284.2729"/>
      <polygon fill="#000000" stroke="#000000" points="200.554,-284.2265 197.0539,-274.2265 193.554,-284.2265 200.554,-284.2265"/>
    </g>
    <!-- tab3b -->
    <g id="node6" class="node">
      <title>tab3b</title>
      <polygon fill="none" stroke="#000000" points="466.888,-274.2019 301.2198,-274.2019 301.2198,-232.9981 466.888,-232.9981 466.888,-274.2019"/>
      <text text-anchor="middle" x="384.0539" y="-257.8" font-family="Helvetica,sans-Serif" font-size="14.00" fill="#000000">Missing lipid information</text>
      <text text-anchor="middle" x="384.0539" y="-241" font-family="Helvetica,sans-Serif" font-size="14.00" fill="#000000">n = 59069</text>
    </g>
    <!-- tab3a&#45;&gt;tab3b -->
    <g id="edge8" class="edge">
      <title>tab3a-&gt;tab3b</title>
      <path fill="none" stroke="#000000" d="M283.9797,-253.6C286.3089,-253.6 288.6381,-253.6 290.9673,-253.6"/>
      <polygon fill="#000000" stroke="#000000" points="291.1799,-257.0999 301.1799,-253.6 291.18,-250.0999 291.1799,-257.0999"/>
    </g>
    <!-- tab4a -->
    <g id="node7" class="node">
      <title>tab4a</title>
      <polygon fill="none" stroke="#000000" points="269.9431,-196.6019 124.1647,-196.6019 124.1647,-155.3981 269.9431,-155.3981 269.9431,-196.6019"/>
      <text text-anchor="middle" x="197.0539" y="-180.2" font-family="Helvetica,sans-Serif" font-size="14.00" fill="#000000">With lipid information</text>
      <text text-anchor="middle" x="197.0539" y="-163.4" font-family="Helvetica,sans-Serif" font-size="14.00" fill="#000000">n = 393572</text>
    </g>
    <!-- tab3a&#45;&gt;tab4a -->
    <g id="edge3" class="edge">
      <title>tab3a-&gt;tab4a</title>
      <path fill="none" stroke="#000000" d="M197.0539,-232.8046C197.0539,-224.8891 197.0539,-215.6891 197.0539,-207.0278"/>
      <polygon fill="#000000" stroke="#000000" points="200.554,-206.8527 197.0539,-196.8528 193.554,-206.8528 200.554,-206.8527"/>
    </g>
    <!-- tab4b -->
    <g id="node8" class="node">
      <title>tab4b</title>
      <polygon fill="none" stroke="#000000" points="432.0539,-196.6019 288.0539,-196.6019 288.0539,-155.3981 432.0539,-155.3981 432.0539,-196.6019"/>
      <text text-anchor="middle" x="360.0539" y="-180.2" font-family="Helvetica,sans-Serif" font-size="14.00" fill="#000000">On statin therapy</text>
      <text text-anchor="middle" x="360.0539" y="-163.4" font-family="Helvetica,sans-Serif" font-size="14.00" fill="#000000">n = 63832</text>
    </g>
    <!-- tab4a&#45;&gt;tab4b -->
    <g id="edge9" class="edge">
      <title>tab4a-&gt;tab4b</title>
      <path fill="none" stroke="#000000" d="M269.9582,-176C272.5757,-176 275.1932,-176 277.8108,-176"/>
      <polygon fill="#000000" stroke="#000000" points="277.907,-179.5001 287.907,-176 277.9069,-172.5001 277.907,-179.5001"/>
    </g>
    <!-- tab5a -->
    <g id="node9" class="node">
      <title>tab5a</title>
      <polygon fill="none" stroke="#000000" points="394.1617,-119.0019 -.0539,-119.0019 -.0539,-77.7981 394.1617,-77.7981 394.1617,-119.0019"/>
      <text text-anchor="middle" x="197.0539" y="-102.6" font-family="Helvetica,sans-Serif" font-size="14.00" fill="#000000">Polygenic score and phenotypic information off statin therapy</text>
      <text text-anchor="middle" x="197.0539" y="-85.8" font-family="Helvetica,sans-Serif" font-size="14.00" fill="#000000">n = 329740</text>
    </g>
    <!-- tab4a&#45;&gt;tab5a -->
    <g id="edge4" class="edge">
      <title>tab4a-&gt;tab5a</title>
      <path fill="none" stroke="#000000" d="M197.0539,-155.2046C197.0539,-147.2891 197.0539,-138.0891 197.0539,-129.4278"/>
      <polygon fill="#000000" stroke="#000000" points="200.554,-129.2527 197.0539,-119.2528 193.554,-129.2528 200.554,-129.2527"/>
    </g>
    <!-- tab5b -->
    <g id="node10" class="node">
      <title>tab5b</title>
      <polygon fill="none" stroke="#000000" points="662.1899,-119.0019 411.9179,-119.0019 411.9179,-77.7981 662.1899,-77.7981 662.1899,-119.0019"/>
      <text text-anchor="middle" x="537.0539" y="-102.6" font-family="Helvetica,sans-Serif" font-size="14.00" fill="#000000">Remains with coronary artery disease</text>
      <text text-anchor="middle" x="537.0539" y="-85.8" font-family="Helvetica,sans-Serif" font-size="14.00" fill="#000000">n = 1903</text>
    </g>
    <!-- tab5a&#45;&gt;tab5b -->
    <g id="edge10" class="edge">
      <title>tab5a-&gt;tab5b</title>
      <path fill="none" stroke="#000000" d="M394.2805,-98.4C396.7509,-98.4 399.2214,-98.4 401.6919,-98.4"/>
      <polygon fill="#000000" stroke="#000000" points="401.8483,-101.9001 411.8483,-98.4 401.8483,-94.9001 401.8483,-101.9001"/>
    </g>
    <!-- tab6a -->
    <g id="node11" class="node">
      <title>tab6a</title>
      <polygon fill="none" stroke="#000000" points="269.0539,-41.4019 125.0539,-41.4019 125.0539,-.1981 269.0539,-.1981 269.0539,-41.4019"/>
      <text text-anchor="middle" x="197.0539" y="-25" font-family="Helvetica,sans-Serif" font-size="14.00" fill="#000000">Complete-case set</text>
      <text text-anchor="middle" x="197.0539" y="-8.2" font-family="Helvetica,sans-Serif" font-size="14.00" fill="#000000">n = 327837</text>
    </g>
    <!-- tab5a&#45;&gt;tab6a -->
    <g id="edge5" class="edge">
      <title>tab5a-&gt;tab6a</title>
      <path fill="none" stroke="#000000" d="M197.0539,-77.6046C197.0539,-69.6891 197.0539,-60.4891 197.0539,-51.8278"/>
      <polygon fill="#000000" stroke="#000000" points="200.554,-51.6527 197.0539,-41.6528 193.554,-51.6528 200.554,-51.6527"/>
    </g>
  </g>
</svg>
