<?xml version="1.0" encoding="UTF-8" standalone="no"?>
<!DOCTYPE svg PUBLIC "-//W3C//DTD SVG 1.1//EN" "http://www.w3.org/Graphics/SVG/1.1/DTD/svg11.dtd">
<!-- Generated by graphviz version 2.40.1 (20161225.0304)
 -->
<!-- Title: flowchart Pages: 1 -->
<svg xmlns="http://www.w3.org/2000/svg" xmlns:xlink="http://www.w3.org/1999/xlink" width="1022pt" height="360pt" viewBox="0.00 0.00 1021.78 360.00">
  <g id="graph0" class="graph" transform="scale(1 1) rotate(0) translate(4 356)">
    <title>flowchart</title>
    <polygon fill="#ffffff" stroke="transparent" points="-4,4 -4,-356 1017.7803,-356 1017.7803,4 -4,4"/>
    <!-- tab1a -->
    <g id="node1" class="node">
      <title>tab1a</title>
      <polygon fill="none" stroke="#000000" points="273.0406,-351.8019 67.3744,-351.8019 67.3744,-310.5981 273.0406,-310.5981 273.0406,-351.8019"/>
      <text text-anchor="middle" x="170.2075" y="-335.4" font-family="Helvetica,sans-Serif" font-size="14.00" fill="#000000">Study base with outcome Data</text>
      <text text-anchor="middle" x="170.2075" y="-318.6" font-family="Helvetica,sans-Serif" font-size="14.00" fill="#000000">n = 3821</text>
    </g>
    <!-- tab1b -->
    <g id="node2" class="node">
      <title>tab1b</title>
      <polygon fill="none" stroke="#000000" points="1013.8531,-351.8019 290.5619,-351.8019 290.5619,-310.5981 1013.8531,-310.5981 1013.8531,-351.8019"/>
      <text text-anchor="middle" x="652.2075" y="-335.4" font-family="Helvetica,sans-Serif" font-size="14.00" fill="#000000">Lack total cholesterol, high-density lipoprotein, smoking status, anti-lipid, anti-hypertensive information at baseline </text>
      <text text-anchor="middle" x="652.2075" y="-318.6" font-family="Helvetica,sans-Serif" font-size="14.00" fill="#000000">n = 154</text>
    </g>
    <!-- tab1a&#45;&gt;tab1b -->
    <g id="edge5" class="edge">
      <title>tab1a-&gt;tab1b</title>
      <path fill="none" stroke="#000000" d="M273.2915,-331.2C275.5965,-331.2 277.9015,-331.2 280.2065,-331.2"/>
      <polygon fill="#000000" stroke="#000000" points="280.3131,-334.7001 290.3131,-331.2 280.3131,-327.7001 280.3131,-334.7001"/>
    </g>
    <!-- tab2a -->
    <g id="node3" class="node">
      <title>tab2a</title>
      <polygon fill="none" stroke="#000000" points="245.007,-274.2019 95.408,-274.2019 95.408,-232.9981 245.007,-232.9981 245.007,-274.2019"/>
      <text text-anchor="middle" x="170.2075" y="-257.8" font-family="Helvetica,sans-Serif" font-size="14.00" fill="#000000">Contain all covariates</text>
      <text text-anchor="middle" x="170.2075" y="-241" font-family="Helvetica,sans-Serif" font-size="14.00" fill="#000000">n = 3660</text>
    </g>
    <!-- tab1a&#45;&gt;tab2a -->
    <g id="edge1" class="edge">
      <title>tab1a-&gt;tab2a</title>
      <path fill="none" stroke="#000000" d="M170.2075,-310.4046C170.2075,-302.4891 170.2075,-293.2891 170.2075,-284.6278"/>
      <polygon fill="#000000" stroke="#000000" points="173.7076,-284.4527 170.2075,-274.4528 166.7076,-284.4528 173.7076,-284.4527"/>
    </g>
    <!-- tab2b -->
    <g id="node4" class="node">
      <title>tab2b</title>
      <polygon fill="none" stroke="#000000" points="407.2075,-274.2019 263.2075,-274.2019 263.2075,-232.9981 407.2075,-232.9981 407.2075,-274.2019"/>
      <text text-anchor="middle" x="335.2075" y="-257.8" font-family="Helvetica,sans-Serif" font-size="14.00" fill="#000000">On statin at baseline</text>
      <text text-anchor="middle" x="335.2075" y="-241" font-family="Helvetica,sans-Serif" font-size="14.00" fill="#000000">n = 21</text>
    </g>
    <!-- tab2a&#45;&gt;tab2b -->
    <g id="edge6" class="edge">
      <title>tab2a-&gt;tab2b</title>
      <path fill="none" stroke="#000000" d="M245.2954,-253.6C247.7649,-253.6 250.2344,-253.6 252.7039,-253.6"/>
      <polygon fill="#000000" stroke="#000000" points="252.8563,-257.0999 262.8563,-253.6 252.8564,-250.0999 252.8563,-257.0999"/>
    </g>
    <!-- tab3a -->
    <g id="node5" class="node">
      <title>tab3a</title>
      <polygon fill="none" stroke="#000000" points="304.5364,-196.6019 35.8786,-196.6019 35.8786,-155.3981 304.5364,-155.3981 304.5364,-196.6019"/>
      <text text-anchor="middle" x="170.2075" y="-180.2" font-family="Helvetica,sans-Serif" font-size="14.00" fill="#000000">Contain All covariates and are statin-free</text>
      <text text-anchor="middle" x="170.2075" y="-163.4" font-family="Helvetica,sans-Serif" font-size="14.00" fill="#000000">n = 3639</text>
    </g>
    <!-- tab2a&#45;&gt;tab3a -->
    <g id="edge2" class="edge">
      <title>tab2a-&gt;tab3a</title>
      <path fill="none" stroke="#000000" d="M170.2075,-232.8046C170.2075,-224.8891 170.2075,-215.6891 170.2075,-207.0278"/>
      <polygon fill="#000000" stroke="#000000" points="173.7076,-206.8527 170.2075,-196.8528 166.7076,-206.8528 173.7076,-206.8527"/>
    </g>
    <!-- tab3b -->
    <g id="node6" class="node">
      <title>tab3b</title>
      <polygon fill="none" stroke="#000000" points="587.9201,-196.6019 322.4949,-196.6019 322.4949,-155.3981 587.9201,-155.3981 587.9201,-196.6019"/>
      <text text-anchor="middle" x="455.2075" y="-180.2" font-family="Helvetica,sans-Serif" font-size="14.00" fill="#000000">With coronary artery disease at baseline</text>
      <text text-anchor="middle" x="455.2075" y="-163.4" font-family="Helvetica,sans-Serif" font-size="14.00" fill="#000000">n = 51</text>
    </g>
    <!-- tab3a&#45;&gt;tab3b -->
    <g id="edge7" class="edge">
      <title>tab3a-&gt;tab3b</title>
      <path fill="none" stroke="#000000" d="M304.6362,-176C307.1175,-176 309.5989,-176 312.0802,-176"/>
      <polygon fill="#000000" stroke="#000000" points="312.2813,-179.5001 322.2813,-176 312.2812,-172.5001 312.2813,-179.5001"/>
    </g>
    <!-- tab4a -->
    <g id="node7" class="node">
      <title>tab4a</title>
      <polygon fill="none" stroke="#000000" points="308.3373,-119.0019 32.0777,-119.0019 32.0777,-77.7981 308.3373,-77.7981 308.3373,-119.0019"/>
      <text text-anchor="middle" x="170.2075" y="-102.6" font-family="Helvetica,sans-Serif" font-size="14.00" fill="#000000">With baseline covariate and outcome data</text>
      <text text-anchor="middle" x="170.2075" y="-85.8" font-family="Helvetica,sans-Serif" font-size="14.00" fill="#000000">n = 3588</text>
    </g>
    <!-- tab3a&#45;&gt;tab4a -->
    <g id="edge3" class="edge">
      <title>tab3a-&gt;tab4a</title>
      <path fill="none" stroke="#000000" d="M170.2075,-155.2046C170.2075,-147.2891 170.2075,-138.0891 170.2075,-129.4278"/>
      <polygon fill="#000000" stroke="#000000" points="173.7076,-129.2527 170.2075,-119.2528 166.7076,-129.2528 173.7076,-129.2527"/>
    </g>
    <!-- tab4b -->
    <g id="node8" class="node">
      <title>tab4b</title>
      <polygon fill="none" stroke="#000000" points="520.0542,-119.0019 326.3608,-119.0019 326.3608,-77.7981 520.0542,-77.7981 520.0542,-119.0019"/>
      <text text-anchor="middle" x="423.2075" y="-102.6" font-family="Helvetica,sans-Serif" font-size="14.00" fill="#000000">Missing genomic information</text>
      <text text-anchor="middle" x="423.2075" y="-85.8" font-family="Helvetica,sans-Serif" font-size="14.00" fill="#000000">n = 959</text>
    </g>
    <!-- tab4a&#45;&gt;tab4b -->
    <g id="edge8" class="edge">
      <title>tab4a-&gt;tab4b</title>
      <path fill="none" stroke="#000000" d="M308.5669,-98.4C311.1791,-98.4 313.7914,-98.4 316.4036,-98.4"/>
      <polygon fill="#000000" stroke="#000000" points="316.4795,-101.9001 326.4795,-98.4 316.4794,-94.9001 316.4795,-101.9001"/>
    </g>
    <!-- tab5a -->
    <g id="node9" class="node">
      <title>tab5a</title>
      <polygon fill="none" stroke="#000000" points="340.6228,-41.4019 -.2078,-41.4019 -.2078,-.1981 340.6228,-.1981 340.6228,-41.4019"/>
      <text text-anchor="middle" x="170.2075" y="-25" font-family="Helvetica,sans-Serif" font-size="14.00" fill="#000000">contain covariate, outcome and genomic information</text>
      <text text-anchor="middle" x="170.2075" y="-8.2" font-family="Helvetica,sans-Serif" font-size="14.00" fill="#000000">n = 2629</text>
    </g>
    <!-- tab4a&#45;&gt;tab5a -->
    <g id="edge4" class="edge">
      <title>tab4a-&gt;tab5a</title>
      <path fill="none" stroke="#000000" d="M170.2075,-77.6046C170.2075,-69.6891 170.2075,-60.4891 170.2075,-51.8278"/>
      <polygon fill="#000000" stroke="#000000" points="173.7076,-51.6527 170.2075,-41.6528 166.7076,-51.6528 173.7076,-51.6527"/>
    </g>
  </g>
</svg>
